<svg width="0" height="0" class="hidden">
  <symbol xmlns="http://www.w3.org/2000/svg" viewBox="0 0 512 512" id="star">
    <title>star-other</title>
    <path d="M415.29 511.82a5.71 5.71 0 01-3.31-1.06L256 399.34 100 510.77a5.69 5.69 0 01-8.82-6l44.73-178.92L1.67 191.58a5.69 5.69 0 014-9.71h178.1l66.9-178.36c1.67-4.44 9-4.44 10.66 0l66.88 178.35h178.1a5.69 5.69 0 014 9.71L376.08 325.83l44.72 178.92a5.69 5.69 0 01-5.52 7.07zM256 386.67a5.71 5.71 0 013.31 1.06L406 492.52l-41.74-167.05a5.68 5.68 0 011.49-5.4l126.83-126.83H324.27a5.69 5.69 0 01-5.33-3.69L256 21.71l-62.94 167.85a5.69 5.69 0 01-5.33 3.69H19.42l126.82 126.82a5.68 5.68 0 011.49 5.4L106 492.52l146.72-104.8a5.71 5.71 0 013.28-1.05z" fill="#898989"></path>
  </symbol>
  <symbol xmlns="http://www.w3.org/2000/svg" viewBox="0 0 21.8 23.8" id="search">
    <path d="M.1 8.6a8.7 8.7 0 00.8 4.8 1 1 0 001.2.4.8.8 0 00.4-1.2 8.3 8.3 0 01-.7-3.8A7.62 7.62 0 0117 9.9a7.7 7.7 0 01-11.8 5.8.8.8 0 00-1.2.2.9.9 0 00.2 1.3 10 10 0 004.5 1.5 9.3 9.3 0 006.1-1.7l5.5 6.4a.9.9 0 00.6.3.7.7 0 00.7-.2.9.9 0 00.1-1.2l-5.6-6.4a8.9 8.9 0 002.6-5.8A9.33 9.33 0 10.1 8.6z" fill="#ecf6fc"></path>
  </symbol>
</svg>